# xmcd
#
# Track frame offsets:
# 150
# 22019
# 50554
# 60515
# 75673
# 95412
# 125259
# 164172
# 181728
# 206326
# 227495
# 246428
# 270719
# 291930
#
# Disc length: 4352 seconds
#
# Revision: 0
# Processed by: cddbd v1.4PL0 Copyright (c) Steve Scherf et al.
# Submitted via: Audion 3.0.2 (http://www.panic.com/audion/)
#
DISCID=c210fe0e
DTITLE=Jimmy Smith - Talkin' Verve
DYEAR=1900
DGENRE=
TTITLE0=Blues for 3+1
TTITLE1=Ode to Billie Joe
TTITLE2=Organ Grinder's Swing
TTITLE3=Ape Woman
TTITLE4=(I can't get no) Satisfaction
TTITLE5=Funky Broadway
TTITLE6=Mellow Mood
TTITLE7=Burning Spear
TTITLE8=One Mint Julep
TTITLE9=Hobo Flats
TTITLE10=Groove Drops
TTITLE11=Tnt
TTITLE12=Blues for Night
TTITLE13=The Sermon
EXTD=
EXTT0=
EXTT1=
EXTT2=
EXTT3=
EXTT4=
EXTT5=
EXTT6=
EXTT7=
EXTT8=
EXTT9=
EXTT10=
EXTT11=
EXTT12=
EXTT13=
PLAYORDER=
